<svg xmlns="http://www.w3.org/2000/svg" xmlns:xlink="http://www.w3.org/1999/xlink" width="261.237" height="280.017" viewBox="0 0 261.237 280.017">
  <defs>
    <filter id="file" x="52.286" y="49.017" width="157" height="208" filterUnits="userSpaceOnUse">
      <feOffset dy="2" input="SourceAlpha"/>
      <feGaussianBlur stdDeviation="3" result="blur"/>
      <feFlood flood-opacity="0.078"/>
      <feComposite operator="in" in2="blur"/>
      <feComposite in="SourceGraphic"/>
    </filter>
  </defs>
  <g id="empty-no-data-state" transform="translate(-469.714 -291.983)">
    <path id="Rectangle_14" data-name="Rectangle 14" d="M0,0H210a0,0,0,0,1,0,0V73a10,10,0,0,1-10,10H10A10,10,0,0,1,0,73V0A0,0,0,0,1,0,0Z" transform="translate(496 489)" fill="#d4d9e8"/>
    <path id="Polygon_1" data-name="Polygon 1" d="M105,0,210,138H0Z" transform="translate(496 351)" fill="#d4d9e8"/>
    <g id="files" transform="translate(463.649 348.133)">
      <g id="file-1" transform="translate(67.535 0)">
        <g transform="matrix(1, 0, 0, 1, -61.47, -56.15)" filter="url(#file)">
          <g id="file-2" data-name="file" transform="translate(61.29 56.02)" fill="#fff" stroke="#e7eaf3" stroke-width="2">
            <rect width="139" height="190" rx="11" stroke="none"/>
            <rect x="1" y="1" width="137" height="188" rx="10" fill="none"/>
          </g>
        </g>
        <g id="content" transform="translate(21.306 23.765)">
          <rect id="Rectangle_1" data-name="Rectangle 1" width="78" height="10" transform="translate(3.51 42.102)" fill="#e7eaf3"/>
          <rect id="Rectangle_2" data-name="Rectangle 2" width="96" height="4" transform="translate(3.51 57.102)" fill="#e7eaf3"/>
          <rect id="Rectangle_3" data-name="Rectangle 3" width="96" height="4" transform="translate(3.51 76.102)" fill="#e7eaf3"/>
          <rect id="Rectangle_4" data-name="Rectangle 4" width="96" height="4" transform="translate(3.51 87.102)" fill="#e7eaf3"/>
          <rect id="Rectangle_5" data-name="Rectangle 5" width="73" height="4" transform="translate(3.51 98.102)" fill="#e7eaf3"/>
          <text id="_" data-name="?" transform="translate(12.51 25.102)" fill="#d4d9e8" font-size="35" font-family="Roboto-Medium, Roboto" font-weight="500"><tspan x="-8.511" y="0">?</tspan></text>
        </g>
      </g>
    </g>
    <g id="lines" transform="translate(433.338 355.22)">
      <line id="Line_2" data-name="Line 2" x1="14.839" y2="16.323" transform="translate(279.949 15.614)" fill="none" stroke="#d4d9e8" stroke-linecap="round" stroke-width="4"/>
      <line id="Line_8" data-name="Line 8" x1="14.839" y2="16.323" transform="matrix(0.755, -0.656, 0.656, 0.755, 158.415, -49.516)" fill="none" stroke="#d4d9e8" stroke-linecap="round" stroke-width="4"/>
      <line id="Line_3" data-name="Line 3" x2="14.839" y2="16.323" transform="translate(39.202 16)" fill="none" stroke="#d4d9e8" stroke-linecap="round" stroke-width="4"/>
    </g>
    <path id="box" d="M1790.933,638.067h68.8l4.8,16.424H1927.8l3.4-16.424h69.6V710.8H1790.933Z" transform="translate(-1295 -149)" fill="#e7eaf3"/>
  </g>
</svg>
