<svg xmlns="http://www.w3.org/2000/svg" xmlns:xlink="http://www.w3.org/1999/xlink" viewBox="0 0 1920 1070.2"><defs><style>.a{fill:none;}.b{fill:#d4dbe3;}.c{fill:#acb6c1;}.d{fill:url(#a);}.e{fill:#a0a4b2;}.f{fill:#377dff;}.g{fill:#2d1582;}.h{fill:#474963;}.i{fill:#fec55e;}.j{fill:#4d5068;}.k,.l,.n{fill:#191c3c;}.k{opacity:0.3;}.l{opacity:0.17;}.m{fill:#fff;}.o{opacity:0.11;}.p{fill:#e0a546;}.q{fill:#19a0ff;}.r,.u,.v{fill:#3a3c4e;}.s{fill:#dd9c3e;}.t{fill:#bf9447;}.u{opacity:0.1;}.v{opacity:0.2;}</style><linearGradient id="a" y1="0.231" x2="1" y2="0.231" gradientUnits="objectBoundingBox"><stop offset="0" stop-color="#01263f"/><stop offset="1" stop-color="#f0f1f3"/></linearGradient></defs><path class="a" d="M0,0H1920V1070.2H0Z"/><path class="b" d="M0,878.6s247.7-143.2,566.4-66.4,489.6-78.7,604.8-145.9S1664.6,308.4,1920,491.2v578.7H0Z"/><path class="c" d="M0,840.6S400.5,592.2,678.9,698.9s654.3,60.3,654.3,60.3v311H0Z"/><path class="d" d="M0,654.7s255.7,194.7,743,19.2c108.3-39.2,215.4-81.4,324.1-119.8,67.2-23.8,139-41.1,210.8-39.2,70.7,2.3,139.8,21.9,204.7,49.5a984.84,984.84,0,0,1,107.1,55.3c33,19.6,64.1,43,99.8,58,31.9,13.1,65.3,21.1,99.5,25.3,25,3.1,50.3,4.6,75.3,5.4,18.4.4,37.2.4,55.7.4v361H0Z"/><path class="e" d="M1425.8,799.9l-17.7-.4-1.5-1.2h-.4l88.3-49.9,4.6-1.9h-.8a19.789,19.789,0,0,0,3.5-1.2l16.1-8.4h0l5-2.7,21.9-6.9-17.3,11.9c-.4.8.8,1.2,2.7,1.5a34.541,34.541,0,0,0,12.3-1.2l43.4-10.8h-1.5l2.7-.8,43.4-5.4c-.8-.4-3.5-.4-6.5-.4l-8.4,1.2h-1.9a30.818,30.818,0,0,0-5.8.4l-4.2.4-12.3.8a74.784,74.784,0,0,0-9.6,1.5l-5.8,1.5h-1.1l-19.6,4.2,16.9-8.8c3.1-1.5,2.7-3.1-.8-3.8l-19.6-4.2c5-1.2,10-2.7,12.7-3.5a5.327,5.327,0,0,0,2.7-1.5l3.1-.4s6.9-1.5,7.3-2.3v-.4c2.7-1.2,4.6-1.9,7.3-3.1a12.036,12.036,0,0,0,2.3-1.2c.4-.4.4-.4.4-.8s.4-1.2.4-1.5c.4-.8-1.9-.8-4.2-1.2a32.1,32.1,0,0,0-6.5-.8,31.286,31.286,0,0,0-6.1.4c-.8,0-1.9.4-2.7.4h-3.8a45.467,45.467,0,0,0-10,1.5c-.4,0-.8.4-1.2.4s-1.2,0-1.5.4a22.774,22.774,0,0,0-9.6,3.8c-.8.4-1.9.8-2.3,1.5a14.849,14.849,0,0,0-3.1.4c-3.8,1.2-3.5,2.3-3.5,2.3l2.3.4c-.4,0-.4.4-.8.4s-.8.4-1.2.4a9.112,9.112,0,0,0-3.1,1.9h0l-3.5,1.5-41.1,4.6a88.707,88.707,0,0,0-18.4,3.8l-22.3,8.8-.4-4.2h-1.9l1.2-1.5c.4-.8-.4-1.2-2.7-1.5l-8.8-.8-1.9-.4a15.385,15.385,0,0,0-4.6-.4h-2.7l-4.2-1.2a15.685,15.685,0,0,0-7.3.4l20,5.4-.8.8H1429l-5.4,10.8c-.4,1.2,3.1,1.5,8.1,1.2,3.1-.4,6.5-.8,9.6-1.5l26.5-8.8-5,2.3h0l-4.2,1.9-2.3.8h0l-15,6.1-8.4,3.5c-.8.4-1.5.8-1.2,1.2h0l-3.5,1.5-76.8,27.6-51.1,22.7H1298l-5.8,1.2-20.4.4a38.708,38.708,0,0,0-10.4,1.9l-1.2.4h39.2l5-.8-1.9.8h13.1l8.1-3.5h-.8l23.4-9.6h0l25.3-10.4,67.2-20.4-.4.4-.4.4h0l-25.7,20.4-31.1,19.2h-.4l-8.1,3.5h13.1l1.9-.8.8.8h39.2l.4-.4C1429.6,800.3,1429.2,800.3,1425.8,799.9Z"/><path class="f" d="M1305.6,565.6l-17.3,122.1-.4,99.5H1314l5.4-86.8,24.6-87.9,22.3,89.8,13.4,84.9h27.7l-26.9-221.6Z"/><path class="g" d="M1286.4,786l-4.2,4.2-21.1,2.3c-5,1.5-5.8,2.7-7.3,7.7l-.4,1.2h43.8l3.1-3.8v3.8h14.6V785.7h-11.5Z"/><path class="g" d="M1407.7,786l4.2,4.2,21.1,2.3c5,1.5,5.8,2.7,7.3,7.7l.4,1.2H1397l-3.1-3.8v3.8h-14.6V785.7h11.5l16.9.3Z"/><path class="h" d="M1333.2,425.1l-29.6,16.5,2.7,69.9-2.3,45.7a7.956,7.956,0,0,0,8.1,8.4h61.1a8.112,8.112,0,0,0,8.1-8.8l-3.8-47.2,15-66-33-18.4-26.3-.1Z"/><path class="i" d="M1359.4,426.2,1346.3,450l-13.1-23.8V409h26.2Z"/><path class="j" d="M1370.9,373.6a25.359,25.359,0,0,0-1.2-3.1,43.819,43.819,0,0,1-3.1-6.1c-1.9-3.8-3.8-3.1-7.3-4.2-3.1-1.2-6.1-3.1-9.6-3.5a17.1,17.1,0,0,0-6.1,1.5c-.8.4-1.5.8-2.3,1.2-1.5.4-3.1,0-4.6,0a8.223,8.223,0,0,0-7.7,6.1c0,.4-.4,1.2-.4,1.5l-1.2,1.2c-4.6,4.2-1.9,11.5-1.2,16.9.4,3.1,0,6.1,2.7,8.4l-1.2-.4a20.4,20.4,0,0,0,11.1,5.4,67.227,67.227,0,0,0,12.7.8h15a3.578,3.578,0,0,0,2.7-.8,4.3,4.3,0,0,0,1.2-3.1c.8-5.8.4-11.5.8-17.3C1370.9,376.3,1371.3,374.8,1370.9,373.6Z"/><path class="k" d="M1333.2,418.9l3.8,6.5a13.579,13.579,0,0,0,11.9,6.9,13.087,13.087,0,0,0,10.8-5.4V409.2h-26.5v9.7Z"/><path class="i" d="M1330.9,382.5v20a27.078,27.078,0,0,0,3.5,13.1l3.8,6.5a13.579,13.579,0,0,0,11.9,6.9h0a13.046,13.046,0,0,0,11.5-6.5l.8-1.2a27.054,27.054,0,0,0,3.8-13.4V371h-34.6Z"/><path class="i" d="M1331.3,405.5l-3.8-2.3s-4.2-6.1-2.3-10.4c0,0,1.5-3.5,4.2-1.9l3.8,3.8Z"/><path class="i" d="M1365.1,405.5l3.8-2.3s4.2-6.1,2.3-10.4c0,0-1.5-3.5-4.2-1.9l-3.8,3.8Z"/><path class="j" d="M1329.8,385.9a71.64,71.64,0,0,1,.8,9.6c0,1.2-.4,5,1.9,3.8a2.163,2.163,0,0,0,1.2-1.9c.4-3.1-2.3-5.8-.8-8.4,1.2-1.9,3.5-3.5,3.8-5.8.4-1.5-.4-3.5-.8-5a6.406,6.406,0,0,1,.8-3.8,3.236,3.236,0,0,1,3.5-1.2c1.2.3,1.9,1.5,3.1,2.3a7.831,7.831,0,0,0,8.1,1.5c1.5-.8,3.1-1.9,4.6-2.7a6.3,6.3,0,0,1,5-1.2c2.7.8,3.5,3.5,4.2,6.1.4,2.7,1.2,5.8.8,8.4-.4,2.3-1.5,4.2-1.9,6.5,0,.4-.4,1.2-.4,1.5,0,1.2.8,1.9,1.2,2.7a.392.392,0,0,0,.4.4c.4,0,.4,0,.8-.4,1.5-1.2,1.9-3.5,2.3-5.4.4-2.7,1.5-4.2.8-6.9-1.2-5.4.4-10.8-.8-16.1,0-.4-.4-1.2-.4-1.5-.4-.4-1.2-.8-1.5-1.2-7.7-2.7-15.7-2.3-23.8-1.9-2.7,0-5.8.4-8.1,1.9-2.7,1.9-4.2,5-5,8.4a35.575,35.575,0,0,0,.2,10.3Z"/><path class="i" d="M1260.7,484.6l-1.2-3.5-35.3-22.7h0a6.477,6.477,0,0,1,7.7-.8l6.9,4.2,2.7-.4a8.49,8.49,0,0,1,6.1,1.2l3.5,2.3,11.9,3.5a10.633,10.633,0,0,1,6.9,6.5l2.7,6.5Z"/><path class="i" d="M1431.9,484.6l1.2-3.5,35.3-22.7h0a6.477,6.477,0,0,0-7.7-.8l-6.9,4.2-2.7-.4a8.49,8.49,0,0,0-6.1,1.2l-3.5,2.3-11.9,3.5a10.633,10.633,0,0,0-6.9,6.5l-2.7,6.5Z"/><path class="h" d="M1333.2,425.1l-34.9,19.6a20.86,20.86,0,0,0-10.8,16.9l-3.1,38-11.1-18.4-15,4.6,21.1,47.2a8.887,8.887,0,0,0,11.5,4.2,14.872,14.872,0,0,0,6.9-6.9l11.1-56.1,24.2-35.7V425.1h.1Z"/><path class="h" d="M1359.4,425.1l34.9,19.6a20.86,20.86,0,0,1,10.8,16.9l3.1,38,11.1-18.4,15,4.6L1413.2,533a8.887,8.887,0,0,1-11.5,4.2,14.871,14.871,0,0,1-6.9-6.9l-11.1-56.1-24.2-35.7V425.1Z"/><rect class="g" width="76" height="11.5" transform="translate(1305.2 561.8)"/><rect class="i" width="13.1" height="11.5" transform="translate(1335.9 561.8)"/><path class="l" d="M1377.8,509.6l6.9-30.7a108.084,108.084,0,0,0-6.1,11.1,2.865,2.865,0,0,0,1.2,3.8c-1.5,3.5-7.3,9.2-9.6,11.5-1.9,1.9,3.5,2.3,5.8,1.5h.4a50.874,50.874,0,0,1-5,7.7c-1.2,1.5-4.2,3.8-2.3,3.5,1.5-.4,6.5.8,8.1.4-.8,1.9-1.2,3.5-1.9,5.4a3.111,3.111,0,0,0,1.9,4.2c-1.2,0,.4,10.8.8,11.9.8,3.5,1.5,5.8,3.1,8.1l-1.5-26.5v-.4Z"/><path class="l" d="M1312.9,516.5c-6.1-3.1-7.7-6.1-5.4-9.2,2.3.8,5.8,0,8.1.8,1.5.4.8-1.5-4.2-1.9.8,0-5.4-7.7-3.1-7.7,1.2,0,1.9-1.5,1.5-2.7-2.7-4.6-3.1-11.1-4.6-16.5l.8,23.4c.4.4,1.2.8,1.5,1.5-.4,0-1.2-.4-1.5-.4l.4,8.1v2.7c.4.4.4.8.8,1.2h-.8l-1.5,35.3c.4-.4.8-.8.8-1.2,0-7.3,2.3-13.4,3.1-20.4.4-2.3-1.5-10.8,3.5-9.6C1313.3,519.9,1314.4,517.2,1312.9,516.5Z"/><path class="m" d="M1333.2,425.1l-7.6,4.6,8.8,32.3,11.9-12Z"/><path class="m" d="M1359.4,425.1l8,4.6-9.2,32.3-11.9-12Z"/><circle class="n" cx="1.5" cy="1.5" r="1.5" transform="translate(1344.8 460.1)"/><path class="n" d="M1347.1,479.2a1.5,1.5,0,1,1-1.5-1.5A1.7,1.7,0,0,1,1347.1,479.2Z"/><path class="n" d="M1346.3,496.5a1.5,1.5,0,1,1-1.5-1.5C1345.9,495.4,1346.3,495.7,1346.3,496.5Z"/><circle class="n" cx="1.5" cy="1.5" r="1.5" transform="translate(1342.9 512.7)"/><circle class="n" cx="1.5" cy="1.5" r="1.5" transform="translate(1342.1 530.3)"/><path class="n" d="M1344.4,549.1a1.5,1.5,0,1,1-3,0,1.7,1.7,0,0,1,1.5-1.5C1344,548,1344.4,548.4,1344.4,549.1Z"/><g class="o"><path class="n" d="M1319.4,700.4l-2.7,44.5c-.4.4-.8.4-1.2.8A163.93,163.93,0,0,0,1309,705a13.7,13.7,0,0,0,6.1-4.2c-1.5,0-3.1-.4-4.6-.4a6.656,6.656,0,0,0,2.7-3.1h-10.4c9.6-2.3,16.9-11.5,16.5-21.1a4.428,4.428,0,0,1-3.8-.8c3.5-5.4,6.9-10.8,10.4-16.5a2.943,2.943,0,0,0,.8-3.1,13.647,13.647,0,0,1-6.1,3.1c2.7-3.1,5.4-6.5,6.5-10.4,1.5-4.6,1.2-9.6,1.9-14.2a29.159,29.159,0,0,1,14.6-20.7Zm25-85.2v-1.9l-.4-.4h0Z"/></g><g class="o"><path class="n" d="M1406.6,780.7l-25.3-210.8h-.8l-.4,1.2c-1.2,13.8-1.2,27.6,1.2,41.1,1.2,8.1,3.1,16.1,1.2,24.2-.4,2.7-1.5,4.6-2.7,7.3-1.2,3.1-1.5,6.9-1.9,10a69,69,0,0,0-1.5,10c-.4,3.5-1.2,6.9-1.2,10.8,0,.4,13.4-2.7,15-4.2a106.319,106.319,0,0,1-5.8,18.4,26.669,26.669,0,0,1,6.1-8.4,39.646,39.646,0,0,0-4.2,13.8,55.668,55.668,0,0,1,8.4-.8c-2.3,5.4-4.6,10.4-7.3,15.7,3.1-1.5,5.8-3.1,8.8-4.6-.8,13.1-1.5,26.1-2.3,38.8-.4,5-.4,10,1.5,14.6,1.5,3.5,3.8,6.1,5.8,9.2a29.228,29.228,0,0,1,3.8,18,22.994,22.994,0,0,1,1.6-4.3Z"/></g><path class="j" d="M1340.9,410.9c-.4,1.2-.8,1.9-1.2,3.1-.4.8-1.5,1.9-2.7,1.5s-1.5-1.9-1.5-3.1c-.4-3.5.4-6.5-.8-10a5.382,5.382,0,0,1-.8-2.7V397a1.5,1.5,0,1,0-3,0v2.3a33.482,33.482,0,0,1,.8,10.8c-.4,3.8,1.2,7.3,2.3,10.8a17.575,17.575,0,0,0,1.5,3.5c1.5,2.7,4.6,4.6,7.7,5.4a38.952,38.952,0,0,0,9.6.8,16.051,16.051,0,0,0,6.1-.8c5.8-2.3,7.3-13.1,8.1-18.4.4-2.3-.4-4.2-.4-6.5-.4-2.7.8-5.8,1.2-8.4a1.469,1.469,0,0,0-.4-1.2c-.4-.4-1.2-.4-1.2-.8a8.978,8.978,0,0,0-2.3,3.1v1.5a33.362,33.362,0,0,1-.4,6.5,54.074,54.074,0,0,0-1.9,7.7,2.914,2.914,0,0,1-1.9,3.1c-.8.4-1.9-.4-2.3-1.5a7.306,7.306,0,0,1-.4-3.1c0-1.2,0-1.9-.8-2.7-.8-1.2-2.3-1.2-3.8-1.2C1349,407.8,1343.2,405.9,1340.9,410.9Z"/><path class="e" d="M1114.8,627.1h-.8a2.935,2.935,0,0,1-2.7-1.5c0-.8.8-1.9,1.5-3.1l3.8-3.8c.8-.4,1.2-1.2,1.9-1.5.4-.4.4-.8.8-1.2,1.2-1.5,3.5-3.1,4.6-5a1.469,1.469,0,0,0,.4-1.2c-.4-.4-1.5-.4-2.7-.4a17.784,17.784,0,0,0-2.7,1.2v-.4c-.4,0-.8-.4-1.5,0h-.4a1.4,1.4,0,0,0-.8.4c-.4,0-.4-.4-.8-.4a6.348,6.348,0,0,0-2.7-.4,31.007,31.007,0,0,0-10.4.4h-1.2l.8-.8c.4-.4,0-.8-.8-.4h-2l-15.7,1.9a4.028,4.028,0,0,0-1.2.4l-4.2,3.8c-.4.4,0,.8.8.4l9.2.4.8-.4-3.8,3.8q-1.2,1.2,1.2,1.2h4.2l-2.3,2.3-9.2.8-11.9.8-.4.4h0l-13.4-.4-5.4-10.4,1.5-2.3-.4-2.3,1.5-1.9-.4-1.9c-1.2.4-1.5,1.2-1.5,1.5v.4l-1.5,1.9h-.4v-.8l-3.5-1.9-.4.4c-.4.4-.4.4,0,.8l2.3,1.5v.4l-.4.4-.8-.8-4.6-.8-.8.8,3.1.4,1.5.8-.8.8-5.4-.8v.4l.4.4,3.8.8.4,2.3,1.2,1.2.8,11.5,17.7,1.5h0l-.4.4,7.3,1.5-4.2,3.8a16.175,16.175,0,0,0-3.1,4.2l-.4,1.5L1041.9,657h.4l-1.2.8h0L1015,675.1l-5,17.7h0l-1.2,1.2-10,1.9h0l-8.8,1.5h-.4c-.4.4-2.3,2.3,5,1.9.8,0,1.5.4,2.7.4,6.1,0,18.8-.4,18.8-.4a10.276,10.276,0,0,0,2.7-1.5l.8-.8h0a.392.392,0,0,1,.4-.4h0c0-.4,0-.4-.4-.8l3.5-3.5h0s20.4-14.6,22.3-20.7l15.7-12.3h0l.8-.8h0l-.4,1.2c3.5-1.5,6.5-3.1,8.4-5l10.4-10.4c.8,0,1.5-.4,2.3-.4l3.1-1.2,10.8-8.4h1.2l9.2-8.4c.8-.8.4-1.2-.4-1.2l-8.4-2.3,3.1-2.7c.4,0,1.2-.4,1.9-.4,1.5-.4,3.5-1.2,5-1.5a7.824,7.824,0,0,0-1.9,1.2c-1.5,1.2-3.1,2.3-2.7,3.5a.86.86,0,0,0,.8.8,11.7,11.7,0,0,0,4.2,1.5h.4a1.469,1.469,0,0,1,.4-1.2c.8.4,1.5.8,2.3,1.2.1,2.7,1.2,2.7,3.2,2.3,0,.4-.4,0,0,0ZM1084.4,627.8ZM1033,675.5l-.4,1.2h0v.4l-3.8,4.2h0l-1.9,2.3a3.3,3.3,0,0,0-.4-4.2Z"/><path class="p" d="M1009.5,683.5l-.8,5.4-14.2,6.9-10.8,2.3s.8,4.6,9.2,5,25-.8,25-.8h0a5.615,5.615,0,0,0,1.5-4.2v-1.9a2.927,2.927,0,0,0-1.9-2.7h0v-8.8Z"/><path class="q" d="M1019.9,696.2a1.469,1.469,0,0,0-.4-1.2c-.8.4-2.3,2.7-3.1,2.7-5.4,0-11.5.8-16.1.4-4.6,0-7.3-.4-8.4-1.5l-8.1,1.9s.8,4.6,9.2,5,25-.8,25-.8a5.615,5.615,0,0,0,1.5-4.2l.4-2.3Z"/><path class="i" d="M1000.3,685.4v2.7l-21.1,8.8s-1.2,6.9,11.9,5.4l23-4.6s.8-2.7,1.2-5a3.607,3.607,0,0,0-1.5-3.8h0l-4.6-4.6Z"/><path class="f" d="M1015.3,690.4a8.412,8.412,0,0,1-5,3.8l-8.8,2.7c-11.1,1.2-12.3-2.7-12.3-4.2l-10,4.2s-1.2,6.9,11.9,5.4l23-4.6s.8-2.7,1.2-5C1016.1,692,1015.7,691.2,1015.3,690.4Z"/><path class="r" d="M1021.4,593.7l-3.8,37.6c6.9,16.1.4,53.4.4,53.4h-8.4l-5-48-5-13.4Z"/><path class="k" d="M1003.8,635.5l13.4-32.6,3.1-2.7.4-.4.8-6.1-22.3,29.6Z"/><path class="k" d="M1009.2,684.7h2.3s1.9-23.8-6.5-37.6Z"/><path class="j" d="M994.6,580.6l-13.1,59.9,19.2,44.5,9.2-.8s2.3-31.1-10.4-42.6l15.7-38.8,3.1-2.7a12.674,12.674,0,0,0,4.6-9.2V577.5Z"/><path class="s" d="M1036.4,506.1c-1.5-2.3-1.9-5-2.3-7.3a35.415,35.415,0,0,1,0-9.2c0-1.2.4-2.7,0-3.8a6.958,6.958,0,0,0-.8-2.7c-.8-3.8-.4-8.4-1.2-12.3a4.093,4.093,0,0,0-1.2-2.7,3.524,3.524,0,0,0-3.8-.8,5.477,5.477,0,0,0-2.3,3.5v-.4c-1.9,5-.8,10.4-1.9,15.7-.8,3.1-1.5,5.8-2.3,8.8-.4,3.1-.4,6.5,1.5,8.8a16.141,16.141,0,0,0,2.7,2.3,34.76,34.76,0,0,0,8.4,4.2,4.588,4.588,0,0,1-1.5-3.1,21.046,21.046,0,0,0,5,3.1,7.307,7.307,0,0,0,5.8,0,9.707,9.707,0,0,1-6.1-4.1Z"/><path class="t" d="M1028,506.9c-.8-.8-1.9-1.2-2.7-2.3-1.9-2.3-2.3-5.8-1.5-8.8.4-3.1,1.5-5.8,2.3-8.8.8-5,0-14.6,0-14.6,0-1.5-.8-1.9-.8-1.9-1.9,5-.8,10.4-1.9,15.7-.8,3.1-1.5,5.8-2.3,8.8-.4,3.1-.4,6.5,1.5,8.8a16.148,16.148,0,0,0,2.7,2.3,34.76,34.76,0,0,0,8.4,4.2l-.4-.4C1031.4,508.8,1029.5,508,1028,506.9Z"/><path class="t" d="M1042.6,510Z"/><path class="t" d="M1034.9,507.6a1.47,1.47,0,0,0,.4,1.2c.8.4,1.5.8,2.3,1.2.8,0,1.2.4,1.5.4A11.036,11.036,0,0,1,1034.9,507.6Z"/><path class="s" d="M1024.9,471.2a2.354,2.354,0,0,1-2.3,0c-.8-.4-1.2-.8-1.9-1.2-1.2-.8-3.1-.8-4.6-1.2-5-.8-10.4-1.2-14.2,1.5h-.4c3.8,9.2,8.4,18.4,13.1,27.6.8-.8,1.9-1.5,2.7-2.3,3.8-3.5,8.1-7.3,8.8-12.3C1026.4,479.2,1024.5,475.4,1024.9,471.2Z"/><rect class="i" width="13.4" height="26.9" transform="translate(1002.2 491.9)"/><path class="k" d="M1007.6,499.6l-5-1.2v-6.9H1016v1.2a6.858,6.858,0,0,1-8.4,6.9Z"/><path class="i" d="M993.4,483.8v11.9a3.05,3.05,0,0,0,3.1,3.1h8.1a8.627,8.627,0,0,0,8.8-8.8V479.6a4.73,4.73,0,0,0-1.9-3.8l-5.4-4.2a4.578,4.578,0,0,0-5-.4C998.8,472.3,995.7,475.8,993.4,483.8Z"/><path class="h" d="M1000.7,470l5,2.7a6.351,6.351,0,0,1,3.8,5.8v1.9l-12.3-2.7Z"/><path class="h" d="M979.6,485.4l13.1,1.2,1.2-1.2,5,.8s5.8,1.9,11.9-3.1l1.2-4.2-15.4-7.7Z"/><path class="h" d="M982.3,483.1l18.4-5a1.277,1.277,0,0,0,1.2-1.2v-7.7a1.385,1.385,0,0,0-1.9-1.2l-18.4,5a1.277,1.277,0,0,0-1.2,1.2v7.7a1.8,1.8,0,0,0,1.9,1.2Z"/><path class="n" d="M1000.7,478.1l23.8,11.5a.392.392,0,0,0,.4-.4v-4.6l-24.2-11.9Z"/><path class="h" d="M1022.6,488.8a.392.392,0,0,0,.4-.4v-4.6l1.5.8v4.6a.392.392,0,0,1-.4.4Z"/><path class="h" d="M1019.5,487.3a.392.392,0,0,0,.4-.4v-4.6l1.5.8v4.6a.392.392,0,0,1-.4.4Z"/><path class="h" d="M1016.1,485.8a.392.392,0,0,0,.4-.4v-4.6l1.5.8v4.6a.392.392,0,0,1-.4.4Z"/><path class="h" d="M1012.6,483.8a.392.392,0,0,0,.4-.4v-4.6l1.5.8v4.6a.392.392,0,0,1-.4.4Z"/><path class="h" d="M1009.2,482.3a.392.392,0,0,0,.4-.4v-4.6l1.5.8v4.6a.392.392,0,0,1-.4.4Z"/><path class="h" d="M1005.7,480.8a.392.392,0,0,0,.4-.4v-4.2l1.5.8v4.6a.392.392,0,0,1-.4.4Z"/><path class="h" d="M1002.2,478.8a.392.392,0,0,0,.4-.4v-4.6l1.5.8v4.6a.392.392,0,0,1-.4.4Z"/><path class="n" d="M979.6,485.4l18.4-5a1.277,1.277,0,0,0,1.2-1.2V468.8a1.385,1.385,0,0,0-1.9-1.2l-18.4,5a1.277,1.277,0,0,0-1.2,1.2v10.4C978,485,978.8,485.8,979.6,485.4Z"/><ellipse class="h" cx="1.2" cy="1.9" rx="1.2" ry="1.9" transform="translate(986.4 474.6)"/><path class="i" d="M1013.8,485s3.1-2.7,4.6,0v4.2a4.192,4.192,0,0,1-2.3,3.8,3.154,3.154,0,0,1-2.7,0Z"/><path class="n" d="M1024.9,474.6l-2.7-2.7a1.212,1.212,0,0,1,0-1.9l.4-.4a1.212,1.212,0,0,1,1.9,0l2.7,2.7a1.212,1.212,0,0,1,0,1.9l-.4.4C1026.4,475,1025.7,475,1024.9,474.6Z"/><path class="k" d="M1019.5,598.7a11.528,11.528,0,0,0,3.1-7.7V577.6l-28,3.1-3.5,15.4v1.5c13.4,3.1,23.8-10.4,23.8-10.4Z"/><path class="f" d="M987.6,509.2v26.9a34.63,34.63,0,0,0,1.9,10.4l1.5,3.8v43.4c13.4,3.1,23.8-10.4,23.8-10.4l6.9,17.7h0a19.389,19.389,0,0,0,3.8-12.7l-1.9-39.6.8-39.6L1016,511l-1.2,1.2a7.973,7.973,0,0,1-12.7-1.2h0Z"/><path class="i" d="M923.5,476.9l-8.1-1.5.8,1.2c0,.4.4.4.8.8l6.5,1.9,3.8,5.8,3.5,3.1,18.4,30,26.1,3.8V508.9l-19.2-1.2-22.3-26.1-.8-5.4-3.5-5.4-1.2-5.4-3.8-5a2.808,2.808,0,0,0,.4,3.8l.8,1.2,1.2,5h0l-.8-.4-.8-1.5-7.3-4.6v1.2a3.552,3.552,0,0,0,.8,1.9l5.4,4.2.4,1.2-.4.8-2.3-1.9-6.9-1.5v1.9l5,1.2,3.5,2.3"/><path class="k" d="M933.1,476.2h0l-2.7-.8c-.8,0-1.2,0-1.5.4l-2.3,1.9v.4l2.3-1.5a2.275,2.275,0,0,1,1.5-.4Z"/><path class="k" d="M972.7,521.1l3,.4V508.8h-1.1Z"/><path class="f" d="M1002.2,504.2l-11.1,1.9-15.4,1.5v15l11.9,3.9,14.6-15.4Z"/><path class="u" d="M1023.7,548.7v-1.5a3.908,3.908,0,0,0-1.2-1.5c.4-.4.8-.8,1.2-.8v-6.5c-.4,0-.8,0-.8-.4a1.753,1.753,0,0,0-.4-2.3h0a2.04,2.04,0,0,1,1.5-.8v-3.1a1.637,1.637,0,0,0-1.9,0c-1.2.8-2.7,1.5-3.8,2.3a1.785,1.785,0,0,0,0,3.1h0a1.682,1.682,0,0,0,.4,3.1c1.2.4,2.7.8,3.8,1.2-1.2.8-3.1,1.5-3.8,2.3a1.753,1.753,0,0,0-.4,2.3c0,.4.8,1.2,1.2,1.5,1.5,4.2,0,3.5.4,6.5a11.084,11.084,0,0,0,.8,3.5c-1.9-1.2,3.1,1.2,1.9-1.2C1021.4,554.1,1023.7,548.7,1023.7,548.7Z"/><path class="v" d="M1022.6,537.2l-1.5,13.4-11.5-6.1-.8-7.7-3.1-3.1-1.2-4.6-4.6-5.4h0a3.338,3.338,0,0,0,.4,3.8l1.5,2.7v6.5l-1.2.4-3.8-5.4h0a4.048,4.048,0,0,0-.8,4.2l8.4,13.4,20,14.6h0l-.8-15V537.4h-1.2l.2-.2Z"/><path class="i" d="M1031.4,535.3l-2.3,21.5-2.3,3.1a3.27,3.27,0,0,1-4.6.8l-17.7-13.8-8.4-13.4a3,3,0,0,1,.8-4.2h0l3.8,5.4,1.2-.4v-6.5l-2.3-3.5c-.8-1.2-.8-2.3,0-3.1l.4-.4,4.6,6.1,1.2,4.6,3.1,3.1.8,7.7,11.5,6.1,1.5-13.4,8.7.3Z"/><path class="k" d="M1031.4,535.3h-8.8v1.9h8.4Z"/><path class="f" d="M1016.1,504.2l15,6.1c1.2.8,2.3,1.9,2.3,3.1v21.5h-11.9v-9.6l-5-14.6v-6.5Z"/></svg>